<svg width="79" height="1292" viewBox="0 0 79 1292" fill="none" xmlns="http://www.w3.org/2000/svg">
<g opacity="0.9">
<path d="M78.7687 71.7568H7.01227V143.513H78.7687V71.7568Z" fill="#FF6600"/>
<path d="M150.525 71.7568H78.7689V143.513H150.525V71.7568Z" fill="#080B4F"/>
<path fill-rule="evenodd" clip-rule="evenodd" d="M132.68 143.513C137.41 143.495 141.941 141.608 145.286 138.263C148.631 134.918 150.518 130.386 150.537 125.656V125.574L127.561 108.348L78.7687 71.7568L29.93 108.336L7.01227 125.492V125.656C7.03073 130.386 8.91805 134.918 12.2629 138.263C15.6079 141.608 20.1392 143.495 24.8696 143.513H25.0332L42.3062 130.155L78.7687 101.944L115.22 129.992L132.68 143.513Z" fill="white"/>
<path fill-rule="evenodd" clip-rule="evenodd" d="M7.01227 89.696C11.77 89.696 16.3329 87.8059 19.6972 84.4417C23.0614 81.0775 24.9514 76.5146 24.9514 71.7568H7.01227V89.696Z" fill="black"/>
<path fill-rule="evenodd" clip-rule="evenodd" d="M78.7687 71.757V0.000488281H7.01227C7.01227 19.0315 14.5723 37.283 28.0293 50.74C41.4862 64.1969 59.7377 71.757 78.7687 71.757Z" fill="#E9941A"/>
<mask id="mask0_997_27244" style="mask-type:luminance" maskUnits="userSpaceOnUse" x="7" y="0" width="72" height="72">
<path d="M78.7658 71.7565V0H7.00934C7.00934 19.031 14.5694 37.2825 28.0263 50.7395C41.4833 64.1964 59.7348 71.7565 78.7658 71.7565Z" fill="white"/>
</mask>
<g mask="url(#mask0_997_27244)">
<path d="M116.821 38.0571C137.838 17.0401 137.838 -17.0352 116.821 -38.0522C95.8039 -59.0692 61.7286 -59.0692 40.7117 -38.0522C19.6947 -17.0352 19.6947 17.0401 40.7117 38.0571C61.7287 59.0741 95.8039 59.0741 116.821 38.0571Z" fill="white"/>
<path d="M78.7682 35.8795C98.5832 35.8795 114.646 19.8163 114.646 0.00128555C114.646 -19.8137 98.5832 -35.877 78.7682 -35.877C58.9532 -35.877 42.89 -19.8137 42.89 0.00128555C42.89 19.8163 58.9532 35.8795 78.7682 35.8795Z" fill="#FF6600"/>
<path d="M78.7672 17.9403C88.6747 17.9403 96.7063 9.90863 96.7063 0.00112915C96.7063 -9.90637 88.6747 -17.938 78.7672 -17.938C68.8597 -17.938 60.8281 -9.90637 60.8281 0.00112915C60.8281 9.90863 68.8597 17.9403 78.7672 17.9403Z" fill="#E9941A"/>
</g>
<path fill-rule="evenodd" clip-rule="evenodd" d="M150.537 71.757V0.000488281H78.7689C78.7689 9.42467 80.6254 18.7565 84.2322 27.4632C87.839 36.1699 93.1256 44.0808 99.79 50.7441C106.454 57.4075 114.366 62.6928 123.074 66.2982C131.781 69.9036 141.113 71.7585 150.537 71.757Z" fill="#E9941A"/>
<mask id="mask1_997_27244" style="mask-type:luminance" maskUnits="userSpaceOnUse" x="78" y="0" width="73" height="72">
<path d="M150.536 71.7565V0H78.7678C78.7678 9.42418 80.6242 18.7561 84.231 27.4627C87.8379 36.1694 93.1244 44.0803 99.7889 50.7436C106.453 57.407 114.365 62.6923 123.072 66.2977C131.78 69.9031 141.112 71.758 150.536 71.7565Z" fill="white"/>
</mask>
<g mask="url(#mask1_997_27244)">
<path d="M188.594 38.0527C209.611 17.0357 209.611 -17.0396 188.594 -38.0566C167.577 -59.0736 133.502 -59.0736 112.485 -38.0566C91.4677 -17.0396 91.4677 17.0357 112.485 38.0527C133.502 59.0697 167.577 59.0697 188.594 38.0527Z" fill="white"/>
</g>
<path d="M78.7687 143.525H7.01227V215.282H78.7687V143.525Z" fill="#FF6600"/>
<path d="M42.8896 179.403H24.9504V197.342H42.8896V179.403Z" fill="#082B4F"/>
<path d="M60.8304 179.403H42.8913V197.342H60.8304V179.403Z" fill="white"/>
<path d="M42.8896 161.464H24.9504V179.403H42.8896V161.464Z" fill="white"/>
<path d="M60.8304 161.464H42.8913V179.403H60.8304V161.464Z" fill="#082B4F"/>
<path d="M150.525 143.525H78.7689V215.282H150.525V143.525Z" fill="#080B4F"/>
<path d="M78.7687 501.829H7.01227V573.585H78.7687V501.829Z" fill="#FF6600"/>
<path d="M150.525 501.829H78.7689V573.585H150.525V501.829Z" fill="#080B4F"/>
<path fill-rule="evenodd" clip-rule="evenodd" d="M132.68 573.573C137.408 573.548 141.936 571.659 145.28 568.315C148.623 564.972 150.512 560.444 150.537 555.716V555.634L127.561 538.408L78.7687 501.816L29.93 538.396L7.01227 555.552V555.716C7.03683 560.444 8.9261 564.972 12.2697 568.315C15.6133 571.659 20.1411 573.548 24.8696 573.573H25.0332L42.3062 560.215L78.7687 532.003L115.22 560.11L132.68 573.573Z" fill="white"/>
<path fill-rule="evenodd" clip-rule="evenodd" d="M7.01227 519.814C11.77 519.814 16.3329 517.924 19.6972 514.56C23.0614 511.196 24.9514 506.633 24.9514 501.875H7.01227V519.814Z" fill="black"/>
<path fill-rule="evenodd" clip-rule="evenodd" d="M78.7687 501.828V430.072H7.01227C7.01227 449.103 14.5723 467.354 28.0293 480.811C41.4862 494.268 59.7377 501.828 78.7687 501.828Z" fill="#E9941A"/>
<mask id="mask2_997_27244" style="mask-type:luminance" maskUnits="userSpaceOnUse" x="7" y="430" width="72" height="72">
<path d="M78.7658 501.828V430.072H7.00934C7.00934 449.103 14.5694 467.354 28.0263 480.811C41.4833 494.268 59.7348 501.828 78.7658 501.828Z" fill="white"/>
</mask>
<g mask="url(#mask2_997_27244)">
<path d="M91.2049 482.448C120.122 475.575 137.992 446.562 131.119 417.645C124.246 388.728 95.2326 370.858 66.3156 377.731C37.3987 384.604 19.5286 413.617 26.4016 442.534C33.2745 471.451 62.288 489.321 91.2049 482.448Z" fill="white"/>
<path d="M78.7663 465.95C98.5814 465.95 114.645 449.887 114.645 430.072C114.645 410.257 98.5814 394.194 78.7663 394.194C58.9513 394.194 42.8881 410.257 42.8881 430.072C42.8881 449.887 58.9513 465.95 78.7663 465.95Z" fill="#FF6600"/>
<path d="M78.7681 448.011C88.6756 448.011 96.7072 439.979 96.7072 430.071C96.7072 420.164 88.6756 412.132 78.7681 412.132C68.8606 412.132 60.829 420.164 60.829 430.071C60.829 439.979 68.8606 448.011 78.7681 448.011Z" fill="#E9941A"/>
</g>
<path fill-rule="evenodd" clip-rule="evenodd" d="M150.537 501.828V430.072H78.7689C78.7689 439.496 80.6254 448.828 84.2322 457.534C87.839 466.241 93.1256 474.152 99.79 480.815C106.454 487.479 114.366 492.764 123.074 496.369C131.781 499.975 141.113 501.83 150.537 501.828Z" fill="#E9941A"/>
<path d="M79.2435 215.037H7.48694V286.793H79.2435V215.037Z" fill="#080B4F"/>
<path fill-rule="evenodd" clip-rule="evenodd" d="M79.2435 215.037C79.2435 224.552 75.4634 233.678 68.735 240.406C62.0065 247.135 52.8807 250.915 43.3652 250.915C33.8497 250.915 24.7239 247.135 17.9954 240.406C11.267 233.678 7.48694 224.552 7.48694 215.037H79.2435Z" fill="#FF6600"/>
<path d="M43.3647 268.854C48.3217 268.854 52.3401 264.835 52.3401 259.878C52.3401 254.921 48.3217 250.903 43.3647 250.903C38.4077 250.903 34.3893 254.921 34.3893 259.878C34.3893 264.835 38.4077 268.854 43.3647 268.854Z" fill="white"/>
<path fill-rule="evenodd" clip-rule="evenodd" d="M7.32367 322.671H43.2019V322.788C43.1679 332.281 39.3729 341.374 32.6481 348.075C25.9233 354.776 16.8169 358.538 7.32367 358.538V322.671Z" fill="#E9941A"/>
<path fill-rule="evenodd" clip-rule="evenodd" d="M79.081 358.537C69.5857 358.537 60.4775 354.773 53.7524 348.07C47.0273 341.367 43.2336 332.271 43.2027 322.776V322.659H79.081V358.537Z" fill="black"/>
<path fill-rule="evenodd" clip-rule="evenodd" d="M79.081 322.671H43.2027V322.554C43.2304 313.086 47.0006 304.014 53.691 297.314C60.3815 290.615 69.4495 286.833 78.9173 286.793H79.081V322.671Z" fill="#E9941A"/>
<path fill-rule="evenodd" clip-rule="evenodd" d="M7.48727 286.793C16.9551 286.833 26.0231 290.615 32.7136 297.314C39.4041 304.014 43.1742 313.086 43.2019 322.554V322.671H7.32367V286.793H7.48727Z" fill="black"/>
<path d="M78.7687 573.585H7.01227V645.341H78.7687V573.585Z" fill="#FF6600"/>
<path d="M42.8896 609.475H24.9504V627.414H42.8896V609.475Z" fill="#082B4F"/>
<path d="M60.8304 609.475H42.8913V627.414H60.8304V609.475Z" fill="white"/>
<path d="M42.8896 591.524H24.9504V609.463H42.8896V591.524Z" fill="white"/>
<path d="M60.8304 591.524H42.8913V609.463H60.8304V591.524Z" fill="#082B4F"/>
<path d="M150.525 573.585H78.7689V645.341H150.525V573.585Z" fill="#080B4F"/>
<path d="M79.0801 358.549H7.32367V430.306H79.0801V358.549Z" fill="#E9941A"/>
<path d="M51.4665 429.364C70.7468 424.793 82.6704 405.456 78.0985 386.176C73.5266 366.896 54.1905 354.972 34.9102 359.544C15.6298 364.116 3.70625 383.452 8.27815 402.732C12.85 422.013 32.1861 433.936 51.4665 429.364Z" fill="#080B4F"/>
<path d="M44.9789 412.266C54.8385 411.292 62.0419 402.51 61.0682 392.65C60.0945 382.791 51.3124 375.588 41.4529 376.561C31.5934 377.535 24.39 386.317 25.3637 396.177C26.3373 406.036 35.1194 413.239 44.9789 412.266Z" fill="white"/>
<path fill-rule="evenodd" clip-rule="evenodd" d="M43.2012 389.063C44.9658 385.837 46.7072 384.225 50.2132 384.225C51.9948 384.164 53.7288 384.807 55.0407 386.014C56.3527 387.221 57.1373 388.895 57.2252 390.676C57.2252 397.127 50.2132 403.531 43.1194 410.029C36.1073 403.578 29.0135 397.173 29.0135 390.676C29.0985 388.894 29.8822 387.218 31.1948 386.01C32.5074 384.803 34.2431 384.161 36.0255 384.225C39.6718 384.248 41.4365 385.837 43.2012 389.063Z" fill="#FF6600"/>
</g>
<g opacity="0.9">
<path d="M78.7687 717.757H7.01227V789.513H78.7687V717.757Z" fill="#FF6600"/>
<path d="M150.525 717.757H78.7689V789.513H150.525V717.757Z" fill="#080B4F"/>
<path fill-rule="evenodd" clip-rule="evenodd" d="M132.68 789.513C137.41 789.495 141.941 787.608 145.286 784.263C148.631 780.918 150.518 776.386 150.537 771.656V771.574L127.561 754.348L78.7687 717.757L29.93 754.336L7.01227 771.492V771.656C7.03073 776.386 8.91805 780.918 12.2629 784.263C15.6079 787.608 20.1392 789.495 24.8696 789.513H25.0332L42.3062 776.155L78.7687 747.944L115.22 775.992L132.68 789.513Z" fill="white"/>
<path fill-rule="evenodd" clip-rule="evenodd" d="M7.01227 735.696C11.77 735.696 16.3329 733.806 19.6972 730.442C23.0614 727.077 24.9514 722.515 24.9514 717.757H7.01227V735.696Z" fill="black"/>
<path fill-rule="evenodd" clip-rule="evenodd" d="M78.7687 717.757V646H7.01227C7.01227 665.031 14.5723 683.283 28.0293 696.74C41.4862 710.197 59.7377 717.757 78.7687 717.757Z" fill="#E9941A"/>
<mask id="mask3_997_27244" style="mask-type:luminance" maskUnits="userSpaceOnUse" x="7" y="646" width="72" height="72">
<path d="M78.7658 717.756V646H7.00934C7.00934 665.031 14.5694 683.283 28.0263 696.739C41.4833 710.196 59.7348 717.756 78.7658 717.756Z" fill="white"/>
</mask>
<g mask="url(#mask3_997_27244)">
<path d="M116.821 684.057C137.838 663.04 137.838 628.965 116.821 607.948C95.8039 586.931 61.7286 586.931 40.7117 607.948C19.6947 628.965 19.6947 663.04 40.7117 684.057C61.7287 705.074 95.8039 705.074 116.821 684.057Z" fill="white"/>
<path d="M78.7682 681.88C98.5832 681.88 114.646 665.816 114.646 646.001C114.646 626.186 98.5832 610.123 78.7682 610.123C58.9532 610.123 42.89 626.186 42.89 646.001C42.89 665.816 58.9532 681.88 78.7682 681.88Z" fill="#FF6600"/>
<path d="M78.7672 663.94C88.6747 663.94 96.7063 655.909 96.7063 646.001C96.7063 636.094 88.6747 628.062 78.7672 628.062C68.8597 628.062 60.8281 636.094 60.8281 646.001C60.8281 655.909 68.8597 663.94 78.7672 663.94Z" fill="#E9941A"/>
</g>
<path fill-rule="evenodd" clip-rule="evenodd" d="M150.537 717.757V646H78.7689C78.7689 655.425 80.6254 664.757 84.2322 673.463C87.839 682.17 93.1256 690.081 99.79 696.744C106.454 703.407 114.366 708.693 123.074 712.298C131.781 715.904 141.113 717.759 150.537 717.757Z" fill="#E9941A"/>
<mask id="mask4_997_27244" style="mask-type:luminance" maskUnits="userSpaceOnUse" x="78" y="646" width="73" height="72">
<path d="M150.536 717.756V646H78.7678C78.7678 655.424 80.6242 664.756 84.231 673.463C87.8379 682.169 93.1244 690.08 99.7889 696.744C106.453 703.407 114.365 708.692 123.072 712.298C131.78 715.903 141.112 717.758 150.536 717.756Z" fill="white"/>
</mask>
<g mask="url(#mask4_997_27244)">
<path d="M188.594 684.053C209.611 663.036 209.611 628.96 188.594 607.943C167.577 586.926 133.502 586.926 112.485 607.943C91.4677 628.96 91.4677 663.036 112.485 684.053C133.502 705.07 167.577 705.07 188.594 684.053Z" fill="white"/>
</g>
<path d="M78.7687 789.525H7.01227V861.282H78.7687V789.525Z" fill="#FF6600"/>
<path d="M42.8896 825.403H24.9504V843.342H42.8896V825.403Z" fill="#082B4F"/>
<path d="M60.8304 825.403H42.8913V843.342H60.8304V825.403Z" fill="white"/>
<path d="M42.8896 807.464H24.9504V825.403H42.8896V807.464Z" fill="white"/>
<path d="M60.8304 807.464H42.8913V825.403H60.8304V807.464Z" fill="#082B4F"/>
<path d="M150.525 789.525H78.7689V861.282H150.525V789.525Z" fill="#080B4F"/>
<path d="M78.7687 1147.83H7.01227V1219.59H78.7687V1147.83Z" fill="#FF6600"/>
<path d="M150.525 1147.83H78.7689V1219.59H150.525V1147.83Z" fill="#080B4F"/>
<path fill-rule="evenodd" clip-rule="evenodd" d="M132.68 1219.57C137.408 1219.55 141.936 1217.66 145.28 1214.32C148.623 1210.97 150.512 1206.44 150.537 1201.72V1201.63L127.561 1184.41L78.7687 1147.82L29.93 1184.4L7.01227 1201.55V1201.72C7.03683 1206.44 8.9261 1210.97 12.2697 1214.32C15.6133 1217.66 20.1411 1219.55 24.8696 1219.57H25.0332L42.3062 1206.21L78.7687 1178L115.22 1206.11L132.68 1219.57Z" fill="white"/>
<path fill-rule="evenodd" clip-rule="evenodd" d="M7.01227 1165.81C11.77 1165.81 16.3329 1163.92 19.6972 1160.56C23.0614 1157.2 24.9514 1152.63 24.9514 1147.88H7.01227V1165.81Z" fill="black"/>
<path fill-rule="evenodd" clip-rule="evenodd" d="M78.7687 1147.83V1076.07H7.01227C7.01227 1095.1 14.5723 1113.35 28.0293 1126.81C41.4862 1140.27 59.7377 1147.83 78.7687 1147.83Z" fill="#E9941A"/>
<mask id="mask5_997_27244" style="mask-type:luminance" maskUnits="userSpaceOnUse" x="7" y="1076" width="72" height="72">
<path d="M78.7658 1147.83V1076.07H7.00934C7.00934 1095.1 14.5694 1113.35 28.0263 1126.81C41.4833 1140.27 59.7348 1147.83 78.7658 1147.83Z" fill="white"/>
</mask>
<g mask="url(#mask5_997_27244)">
<path d="M91.2049 1128.45C120.122 1121.58 137.992 1092.56 131.119 1063.64C124.246 1034.73 95.2326 1016.86 66.3156 1023.73C37.3987 1030.6 19.5286 1059.62 26.4016 1088.53C33.2745 1117.45 62.288 1135.32 91.2049 1128.45Z" fill="white"/>
<path d="M78.7663 1111.95C98.5814 1111.95 114.645 1095.89 114.645 1076.07C114.645 1056.26 98.5814 1040.19 78.7663 1040.19C58.9513 1040.19 42.8881 1056.26 42.8881 1076.07C42.8881 1095.89 58.9513 1111.95 78.7663 1111.95Z" fill="#FF6600"/>
<path d="M78.7681 1094.01C88.6756 1094.01 96.7072 1085.98 96.7072 1076.07C96.7072 1066.16 88.6756 1058.13 78.7681 1058.13C68.8606 1058.13 60.829 1066.16 60.829 1076.07C60.829 1085.98 68.8606 1094.01 78.7681 1094.01Z" fill="#E9941A"/>
</g>
<path fill-rule="evenodd" clip-rule="evenodd" d="M150.537 1147.83V1076.07H78.7689C78.7689 1085.5 80.6254 1094.83 84.2322 1103.53C87.839 1112.24 93.1256 1120.15 99.79 1126.82C106.454 1133.48 114.366 1138.76 123.074 1142.37C131.781 1145.97 141.113 1147.83 150.537 1147.83Z" fill="#E9941A"/>
<path d="M79.2435 861.037H7.48694V932.793H79.2435V861.037Z" fill="#080B4F"/>
<path fill-rule="evenodd" clip-rule="evenodd" d="M79.2435 861.037C79.2435 870.552 75.4634 879.678 68.735 886.406C62.0065 893.135 52.8807 896.915 43.3652 896.915C33.8497 896.915 24.7239 893.135 17.9954 886.406C11.267 879.678 7.48694 870.552 7.48694 861.037H79.2435Z" fill="#FF6600"/>
<path d="M43.3647 914.854C48.3217 914.854 52.3401 910.835 52.3401 905.878C52.3401 900.921 48.3217 896.903 43.3647 896.903C38.4077 896.903 34.3893 900.921 34.3893 905.878C34.3893 910.835 38.4077 914.854 43.3647 914.854Z" fill="white"/>
<path fill-rule="evenodd" clip-rule="evenodd" d="M7.32367 968.671H43.2019V968.788C43.1679 978.281 39.3729 987.374 32.6481 994.075C25.9233 1000.78 16.8169 1004.54 7.32367 1004.54V968.671Z" fill="#E9941A"/>
<path fill-rule="evenodd" clip-rule="evenodd" d="M79.081 1004.54C69.5857 1004.54 60.4775 1000.77 53.7524 994.07C47.0273 987.367 43.2336 978.271 43.2027 968.776V968.659H79.081V1004.54Z" fill="black"/>
<path fill-rule="evenodd" clip-rule="evenodd" d="M79.081 968.671H43.2027V968.554C43.2304 959.086 47.0006 950.013 53.691 943.314C60.3815 936.615 69.4495 932.833 78.9173 932.793H79.081V968.671Z" fill="#E9941A"/>
<path fill-rule="evenodd" clip-rule="evenodd" d="M7.48727 932.793C16.9551 932.833 26.0231 936.615 32.7136 943.314C39.4041 950.013 43.1742 959.086 43.2019 968.554V968.671H7.32367V932.793H7.48727Z" fill="black"/>
<path d="M78.7687 1219.58H7.01227V1291.34H78.7687V1219.58Z" fill="#FF6600"/>
<path d="M42.8896 1255.47H24.9504V1273.41H42.8896V1255.47Z" fill="#082B4F"/>
<path d="M60.8304 1255.47H42.8913V1273.41H60.8304V1255.47Z" fill="white"/>
<path d="M42.8896 1237.52H24.9504V1255.46H42.8896V1237.52Z" fill="white"/>
<path d="M60.8304 1237.52H42.8913V1255.46H60.8304V1237.52Z" fill="#082B4F"/>
<path d="M150.525 1219.58H78.7689V1291.34H150.525V1219.58Z" fill="#080B4F"/>
<path d="M79.0801 1004.55H7.32367V1076.31H79.0801V1004.55Z" fill="#E9941A"/>
<path d="M51.4665 1075.36C70.7468 1070.79 82.6704 1051.46 78.0985 1032.18C73.5266 1012.9 54.1905 1000.97 34.9102 1005.54C15.6298 1010.12 3.70625 1029.45 8.27815 1048.73C12.85 1068.01 32.1861 1079.94 51.4665 1075.36Z" fill="#080B4F"/>
<path d="M44.9789 1058.27C54.8385 1057.29 62.0419 1048.51 61.0682 1038.65C60.0945 1028.79 51.3124 1021.59 41.4529 1022.56C31.5934 1023.53 24.39 1032.32 25.3637 1042.18C26.3373 1052.04 35.1194 1059.24 44.9789 1058.27Z" fill="white"/>
<path fill-rule="evenodd" clip-rule="evenodd" d="M43.2012 1035.06C44.9658 1031.84 46.7072 1030.22 50.2132 1030.22C51.9948 1030.16 53.7288 1030.81 55.0407 1032.01C56.3527 1033.22 57.1373 1034.9 57.2252 1036.68C57.2252 1043.13 50.2132 1049.53 43.1194 1056.03C36.1073 1049.58 29.0135 1043.17 29.0135 1036.68C29.0985 1034.89 29.8822 1033.22 31.1948 1032.01C32.5074 1030.8 34.2431 1030.16 36.0255 1030.22C39.6718 1030.25 41.4365 1031.84 43.2012 1035.06Z" fill="#FF6600"/>
</g>
</svg>
