<svg width="71" height="974" viewBox="0 0 71 974" fill="none" xmlns="http://www.w3.org/2000/svg">
<g opacity="0.9">
<path d="M70.5254 71.7568H-1.23108V143.513H70.5254V71.7568Z" fill="#080B4F"/>
<path fill-rule="evenodd" clip-rule="evenodd" d="M52.6796 143.513C57.41 143.495 61.9413 141.608 65.2863 138.263C68.6311 134.918 70.5185 130.386 70.5369 125.656V125.574L47.5608 108.348L-1.23125 71.7568L-50.07 108.336L-72.9877 125.492V125.656C-72.9693 130.386 -71.082 134.918 -67.7371 138.263C-64.3921 141.608 -59.8608 143.495 -55.1304 143.513H-54.9668L-37.6938 130.155L-1.23125 101.944L35.2196 129.992L52.6796 143.513Z" fill="white"/>
<path fill-rule="evenodd" clip-rule="evenodd" d="M52.5984 71.7568C52.5984 76.5146 54.4884 81.0775 57.8527 84.4417C61.2169 87.8059 65.7798 89.696 70.5375 89.696V71.7568H52.5984Z" fill="black"/>
<path fill-rule="evenodd" clip-rule="evenodd" d="M70.5371 71.757V0.000488281H-1.23108C-1.23108 9.42467 0.625369 18.7565 4.2322 27.4632C7.83903 36.1699 13.1256 44.0808 19.79 50.7441C26.4545 57.4075 34.3663 62.6928 43.0735 66.2982C51.7808 69.9036 61.1129 71.7585 70.5371 71.757Z" fill="#E9941A"/>
<mask id="mask0_997_27802" style="mask-type:luminance" maskUnits="userSpaceOnUse" x="-2" y="0" width="73" height="72">
<path d="M70.5359 71.7565V0H-1.23224C-1.23224 9.42418 0.624209 18.7561 4.23104 27.4627C7.83787 36.1694 13.1244 44.0803 19.7889 50.7436C26.4533 57.407 34.3651 62.6923 43.0723 66.2977C51.7796 69.9031 61.1118 71.758 70.5359 71.7565Z" fill="white"/>
</mask>
<g mask="url(#mask0_997_27802)">
<path d="M108.594 38.0524C129.611 17.0354 129.611 -17.0398 108.594 -38.0568C87.5769 -59.0738 53.5017 -59.0738 32.4847 -38.0568C11.4677 -17.0398 11.4677 17.0354 32.4847 38.0524C53.5017 59.0694 87.5769 59.0694 108.594 38.0524Z" fill="white"/>
<path d="M70.537 35.8788C90.352 35.8788 106.415 19.8156 106.415 0.000553131C106.415 -19.8145 90.352 -35.8777 70.537 -35.8777C50.722 -35.8777 34.6588 -19.8145 34.6588 0.000553131C34.6588 19.8156 50.722 35.8788 70.537 35.8788Z" fill="#FF6600"/>
<path d="M70.5374 17.9395C80.4449 17.9395 88.4766 9.9079 88.4766 0.000396729C88.4766 -9.9071 80.4449 -17.9387 70.5374 -17.9387C60.6299 -17.9387 52.5983 -9.9071 52.5983 0.000396729C52.5983 9.9079 60.6299 17.9395 70.5374 17.9395Z" fill="#E9941A"/>
</g>
<path d="M70.5254 143.525H-1.23108V215.282H70.5254V143.525Z" fill="#080B4F"/>
<path fill-rule="evenodd" clip-rule="evenodd" d="M16.7065 170.428C18.4827 170.43 20.2196 169.905 21.6974 168.92C23.1752 167.935 24.3274 166.533 25.0082 164.893C25.6889 163.252 25.8676 161.446 25.5217 159.704C25.1757 157.962 24.3207 156.362 23.0648 155.106C21.8088 153.85 20.2085 152.995 18.4663 152.649C16.7242 152.303 14.9186 152.482 13.2781 153.162C11.6375 153.843 10.2359 154.995 9.25055 156.473C8.2652 157.951 7.74049 159.688 7.74281 161.464C7.74898 163.84 8.69534 166.116 10.375 167.796C12.0547 169.475 14.3311 170.422 16.7065 170.428Z" fill="white"/>
<path fill-rule="evenodd" clip-rule="evenodd" d="M52.5986 170.428C54.3743 170.428 56.11 169.901 57.5863 168.914C59.0625 167.928 60.2129 166.525 60.8919 164.885C61.5709 163.244 61.7479 161.439 61.4007 159.697C61.0534 157.956 60.1974 156.357 58.941 155.102C57.6846 153.847 56.0842 152.993 54.3424 152.648C52.6006 152.303 50.7956 152.483 49.1558 153.164C47.5159 153.845 46.115 154.997 45.1301 156.475C44.1453 157.952 43.6209 159.688 43.6232 161.464C43.6294 163.842 44.5774 166.12 46.2596 167.8C47.9418 169.48 50.2212 170.425 52.5986 170.428Z" fill="#FF6600"/>
<path fill-rule="evenodd" clip-rule="evenodd" d="M16.7065 206.306C18.4827 206.308 20.2196 205.784 21.6974 204.798C23.1752 203.813 24.3274 202.411 25.0082 200.771C25.6889 199.13 25.8676 197.325 25.5217 195.582C25.1757 193.84 24.3207 192.24 23.0648 190.984C21.8088 189.728 20.2085 188.873 18.4663 188.527C16.7242 188.181 14.9186 188.36 13.2781 189.041C11.6375 189.721 10.2359 190.874 9.25055 192.351C8.2652 193.829 7.74049 195.566 7.74281 197.342C7.74898 199.718 8.69534 201.994 10.375 203.674C12.0547 205.353 14.3311 206.3 16.7065 206.306Z" fill="#FF6600"/>
<path fill-rule="evenodd" clip-rule="evenodd" d="M52.5986 206.306C54.3743 206.306 56.11 205.779 57.5863 204.793C59.0625 203.806 60.2129 202.403 60.8919 200.763C61.5709 199.122 61.7479 197.317 61.4007 195.575C61.0534 193.834 60.1974 192.235 58.941 190.98C57.6846 189.725 56.0842 188.871 54.3424 188.526C52.6006 188.181 50.7956 188.361 49.1558 189.042C47.5159 189.723 46.115 190.875 45.1301 192.353C44.1453 193.83 43.6209 195.567 43.6232 197.342C43.6294 199.72 44.5774 201.998 46.2596 203.678C47.9418 205.358 50.2212 206.303 52.5986 206.306Z" fill="white"/>
<path d="M70.5254 501.829H-1.23108V573.585H70.5254V501.829Z" fill="#080B4F"/>
<path fill-rule="evenodd" clip-rule="evenodd" d="M52.6796 573.573C57.4081 573.548 61.9359 571.659 65.2795 568.315C68.6231 564.972 70.5124 560.444 70.5369 555.715V555.634L47.5608 538.407L-1.23125 501.816L-50.07 538.396L-72.9877 555.552V555.715C-72.9632 560.444 -71.0739 564.972 -67.7303 568.315C-64.3867 571.659 -59.8589 573.548 -55.1304 573.573H-54.9668L-37.6938 560.215L-1.23125 532.003L35.2196 560.11L52.6796 573.573Z" fill="white"/>
<path fill-rule="evenodd" clip-rule="evenodd" d="M52.5985 501.829C52.5923 504.188 53.0518 506.526 53.9505 508.708C54.8493 510.89 56.1697 512.873 57.8361 514.544C59.5026 516.214 61.4823 517.54 63.6618 518.444C65.8413 519.349 68.1778 519.814 70.5376 519.814V501.829H52.5985Z" fill="black"/>
<path fill-rule="evenodd" clip-rule="evenodd" d="M70.5371 501.828V430.072H-1.23108C-1.23108 439.496 0.625369 448.828 4.2322 457.534C7.83903 466.241 13.1256 474.152 19.79 480.815C26.4545 487.479 34.3663 492.764 43.0735 496.369C51.7808 499.975 61.1129 501.83 70.5371 501.828Z" fill="#E9941A"/>
<mask id="mask1_997_27802" style="mask-type:luminance" maskUnits="userSpaceOnUse" x="-2" y="430" width="73" height="72">
<path d="M70.5359 501.828V430.072H-1.23224C-1.23224 439.496 0.624209 448.828 4.23104 457.534C7.83787 466.241 13.1244 474.152 19.7889 480.815C26.4533 487.479 34.3651 492.764 43.0723 496.369C51.7796 499.975 61.1118 501.83 70.5359 501.828Z" fill="white"/>
</mask>
<g mask="url(#mask1_997_27802)">
<path d="M82.9815 482.447C111.898 475.574 129.769 446.561 122.896 417.644C116.023 388.727 87.0091 370.857 58.0922 377.73C29.1753 384.603 11.3051 413.616 18.1781 442.533C25.0511 471.45 54.0646 489.32 82.9815 482.447Z" fill="white"/>
<path d="M70.5387 465.949C90.3538 465.949 106.417 449.886 106.417 430.071C106.417 410.256 90.3538 394.193 70.5387 394.193C50.7237 394.193 34.6605 410.256 34.6605 430.071C34.6605 449.886 50.7237 465.949 70.5387 465.949Z" fill="#FF6600"/>
<path d="M70.5391 448.01C80.4466 448.01 88.4783 439.979 88.4783 430.071C88.4783 420.164 80.4466 412.132 70.5391 412.132C60.6316 412.132 52.6 420.164 52.6 430.071C52.6 439.979 60.6316 448.01 70.5391 448.01Z" fill="#E9941A"/>
</g>
<path d="M70.5254 573.585H-1.23108V645.341H70.5254V573.585Z" fill="#080B4F"/>
<path fill-rule="evenodd" clip-rule="evenodd" d="M16.7065 600.453C18.4822 600.455 20.2186 599.93 21.6961 598.946C23.1737 597.961 24.3259 596.56 25.007 594.92C25.6882 593.28 25.8676 591.475 25.5226 589.733C25.1776 587.991 24.3237 586.391 23.0689 585.135C21.8141 583.878 20.2149 583.022 18.4735 582.675C16.7321 582.328 14.9269 582.505 13.2861 583.184C11.6454 583.863 10.243 585.013 9.25624 586.489C8.2695 587.966 7.7428 589.701 7.7428 591.477C7.74588 593.855 8.69086 596.134 10.3709 597.816C12.0509 599.498 14.329 600.446 16.7065 600.453Z" fill="white"/>
<path fill-rule="evenodd" clip-rule="evenodd" d="M52.5986 600.453C54.3738 600.453 56.109 599.926 57.585 598.94C59.061 597.954 60.2114 596.552 60.8908 594.912C61.5701 593.272 61.7478 591.467 61.4015 589.726C61.0552 587.985 60.2004 586.386 58.9452 585.131C57.6899 583.875 56.0907 583.02 54.3496 582.674C52.6086 582.328 50.8039 582.506 49.1638 583.185C47.5238 583.864 46.122 585.015 45.1358 586.491C44.1496 587.967 43.6232 589.702 43.6232 591.477C43.6263 593.857 44.5729 596.138 46.2554 597.82C47.938 599.503 50.2191 600.449 52.5986 600.453Z" fill="#FF6600"/>
<path d="M23.0582 633.759C26.5634 630.254 26.5634 624.571 23.0582 621.066C19.5531 617.561 13.8702 617.561 10.3651 621.066C6.86 624.571 6.86 630.254 10.3651 633.759C13.8702 637.264 19.5531 637.264 23.0582 633.759Z" fill="#FF6600"/>
<path fill-rule="evenodd" clip-rule="evenodd" d="M52.5986 636.378C54.3738 636.378 56.109 635.851 57.585 634.865C59.061 633.879 60.2114 632.477 60.8908 630.837C61.5701 629.197 61.7478 627.392 61.4015 625.651C61.0552 623.91 60.2004 622.311 58.9452 621.056C57.6899 619.8 56.0907 618.946 54.3496 618.599C52.6086 618.253 50.8039 618.431 49.1638 619.11C47.5238 619.789 46.122 620.94 45.1358 622.416C44.1496 623.892 43.6232 625.627 43.6232 627.402C43.6263 629.782 44.5729 632.063 46.2554 633.745C47.938 635.428 50.2191 636.374 52.5986 636.378Z" fill="white"/>
<path d="M-28.5335 429.364C-9.25318 424.793 2.6704 405.456 -1.9015 386.176C-6.4734 366.896 -25.8095 354.972 -45.0898 359.544C-64.3702 364.116 -76.2937 383.452 -71.7219 402.732C-67.15 422.013 -47.8139 433.936 -28.5335 429.364Z" fill="#080B4F"/>
<path d="M71 215.037H-0.75647V286.793H71V215.037Z" fill="#FF6600"/>
<path fill-rule="evenodd" clip-rule="evenodd" d="M71 286.792C71 277.277 67.22 268.151 60.4915 261.423C53.763 254.694 44.6373 250.914 35.1218 250.914C25.6063 250.914 16.4805 254.694 9.75202 261.423C3.02355 268.151 -0.75647 277.277 -0.75647 286.792H71Z" fill="#080B4F"/>
<path fill-rule="evenodd" clip-rule="evenodd" d="M35.1214 250.914C36.8971 250.914 38.6328 250.388 40.109 249.401C41.5853 248.414 42.7357 247.012 43.4147 245.371C44.0937 243.73 44.2707 241.925 43.9235 240.184C43.5762 238.442 42.7202 236.843 41.4638 235.588C40.2074 234.334 38.607 233.48 36.8652 233.135C35.1234 232.79 33.3184 232.969 31.6785 233.65C30.0387 234.331 28.6378 235.484 27.6529 236.961C26.6681 238.439 26.1436 240.175 26.1459 241.951C26.1521 244.328 27.1002 246.606 28.7824 248.286C30.4646 249.966 32.744 250.911 35.1214 250.914Z" fill="white"/>
<path fill-rule="evenodd" clip-rule="evenodd" d="M-0.75647 394.427C8.75903 394.427 17.8848 390.647 24.6133 383.919C31.3418 377.19 35.1218 368.065 35.1218 358.549H-0.75647V394.427Z" fill="black"/>
<path fill-rule="evenodd" clip-rule="evenodd" d="M35.1212 358.538C35.1197 363.25 36.0466 367.916 37.8491 372.27C39.6516 376.623 42.2944 380.579 45.6263 383.911C48.9582 387.243 52.9139 389.886 57.2676 391.688C61.6212 393.491 66.2874 394.418 70.9994 394.416V358.538H35.1212Z" fill="#FF6600"/>
<path fill-rule="evenodd" clip-rule="evenodd" d="M70.9994 394.427C61.4839 394.427 52.3582 398.208 45.6297 404.936C38.9012 411.664 35.1212 420.79 35.1212 430.306H70.9994V394.427Z" fill="#080B4F"/>
<path fill-rule="evenodd" clip-rule="evenodd" d="M35.1218 430.306C35.1187 420.791 31.3377 411.667 24.6099 404.939C17.8821 398.212 8.75808 394.431 -0.75647 394.427V430.306H35.1218Z" fill="#E9941A"/>
<path fill-rule="evenodd" clip-rule="evenodd" d="M-0.75647 322.671H35.1218V322.554C35.0909 313.059 31.2972 303.963 24.5721 297.26C17.8469 290.557 8.73882 286.793 -0.75647 286.793V322.671Z" fill="black"/>
<path fill-rule="evenodd" clip-rule="evenodd" d="M70.9994 286.793C61.5041 286.793 52.3961 290.557 45.6709 297.26C38.9458 303.963 35.1521 313.059 35.1212 322.554V322.671H70.9994V286.793Z" fill="#FF6600"/>
<path fill-rule="evenodd" clip-rule="evenodd" d="M70.9994 322.671H35.1212V322.788C35.152 332.254 38.9235 341.324 45.6137 348.021C52.3038 354.717 61.37 358.498 70.8358 358.538H70.9994V322.671Z" fill="black"/>
<path fill-rule="evenodd" clip-rule="evenodd" d="M-0.592874 358.537C8.87499 358.497 17.9429 354.715 24.6334 348.016C31.3239 341.317 35.0941 332.244 35.1218 322.776V322.659H-0.75647V358.537H-0.592874Z" fill="#FF6600"/>
</g>
<g clip-path="url(#clip0_997_27802)">
<g opacity="0.9">
<path d="M70.526 717.757H-1.23047V789.513H70.526V717.757Z" fill="#080B4F"/>
<path fill-rule="evenodd" clip-rule="evenodd" d="M52.6791 789.513C57.4094 789.495 61.9408 787.608 65.2857 784.263C68.6306 780.918 70.5179 776.386 70.5364 771.656V771.574L47.5603 754.348L-1.2318 717.757L-50.0706 754.336L-72.9883 771.492V771.656C-72.9698 776.386 -71.0825 780.918 -67.7376 784.263C-64.3927 787.608 -59.8613 789.495 -55.131 789.513H-54.9673L-37.6944 776.155L-1.2318 747.944L35.2191 775.992L52.6791 789.513Z" fill="white"/>
<path fill-rule="evenodd" clip-rule="evenodd" d="M52.5977 717.757C52.5977 722.515 54.4877 727.077 57.8519 730.442C61.2161 733.806 65.779 735.696 70.5367 735.696V717.757H52.5977Z" fill="black"/>
<path fill-rule="evenodd" clip-rule="evenodd" d="M70.5377 717.757V646H-1.23047C-1.23047 655.425 0.625979 664.757 4.23281 673.463C7.83964 682.17 13.1262 690.081 19.7907 696.744C26.4551 703.407 34.3669 708.693 43.0741 712.298C51.7814 715.904 61.1135 717.759 70.5377 717.757Z" fill="#E9941A"/>
<mask id="mask2_997_27802" style="mask-type:luminance" maskUnits="userSpaceOnUse" x="-2" y="646" width="73" height="72">
<path d="M70.5359 717.756V646H-1.23224C-1.23224 655.424 0.624209 664.756 4.23104 673.463C7.83787 682.169 13.1244 690.08 19.7889 696.744C26.4533 703.407 34.3651 708.692 43.0723 712.298C51.7796 715.903 61.1118 717.758 70.5359 717.756Z" fill="white"/>
</mask>
<g mask="url(#mask2_997_27802)">
<path d="M108.594 684.052C129.611 663.035 129.611 628.96 108.594 607.943C87.5769 586.926 53.5017 586.926 32.4847 607.943C11.4677 628.96 11.4677 663.035 32.4847 684.052C53.5017 705.069 87.5769 705.069 108.594 684.052Z" fill="white"/>
<path d="M70.5368 681.879C90.3518 681.879 106.415 665.816 106.415 646.001C106.415 626.186 90.3518 610.122 70.5368 610.122C50.7218 610.122 34.6586 626.186 34.6586 646.001C34.6586 665.816 50.7218 681.879 70.5368 681.879Z" fill="#FF6600"/>
<path d="M70.5371 663.94C80.4446 663.94 88.4762 655.908 88.4762 646C88.4762 636.093 80.4446 628.061 70.5371 628.061C60.6296 628.061 52.598 636.093 52.598 646C52.598 655.908 60.6296 663.94 70.5371 663.94Z" fill="#E9941A"/>
</g>
<path d="M70.526 789.525H-1.23047V861.282H70.526V789.525Z" fill="#080B4F"/>
<path fill-rule="evenodd" clip-rule="evenodd" d="M16.7059 816.428C18.4821 816.43 20.219 815.905 21.6968 814.92C23.1745 813.935 24.3268 812.533 25.0075 810.893C25.6883 809.252 25.867 807.446 25.5211 805.704C25.1751 803.962 24.3201 802.362 23.0642 801.106C21.8082 799.85 20.2079 798.995 18.4657 798.649C16.7236 798.303 14.918 798.482 13.2774 799.162C11.6369 799.843 10.2353 800.995 9.24994 802.473C8.26459 803.951 7.73988 805.688 7.7422 807.464C7.74837 809.84 8.69473 812.116 10.3744 813.796C12.0541 815.475 14.3305 816.422 16.7059 816.428Z" fill="white"/>
<path fill-rule="evenodd" clip-rule="evenodd" d="M52.5986 816.428C54.3743 816.428 56.11 815.901 57.5863 814.914C59.0625 813.928 60.2129 812.525 60.8919 810.885C61.5709 809.244 61.7479 807.439 61.4007 805.697C61.0534 803.956 60.1974 802.357 58.941 801.102C57.6846 799.847 56.0842 798.993 54.3424 798.648C52.6006 798.303 50.7956 798.483 49.1558 799.164C47.5159 799.845 46.115 800.997 45.1301 802.475C44.1453 803.952 43.6209 805.688 43.6232 807.464C43.6294 809.842 44.5774 812.12 46.2596 813.8C47.9418 815.48 50.2212 816.425 52.5986 816.428Z" fill="#FF6600"/>
<path fill-rule="evenodd" clip-rule="evenodd" d="M16.7059 852.306C18.4821 852.308 20.219 851.784 21.6968 850.798C23.1745 849.813 24.3268 848.411 25.0075 846.771C25.6883 845.13 25.867 843.325 25.5211 841.582C25.1751 839.84 24.3201 838.24 23.0642 836.984C21.8082 835.728 20.2079 834.873 18.4657 834.527C16.7236 834.181 14.918 834.36 13.2774 835.041C11.6369 835.721 10.2353 836.874 9.24994 838.351C8.26459 839.829 7.73988 841.566 7.7422 843.342C7.74837 845.718 8.69473 847.994 10.3744 849.674C12.0541 851.353 14.3305 852.3 16.7059 852.306Z" fill="#FF6600"/>
<path fill-rule="evenodd" clip-rule="evenodd" d="M52.5986 852.306C54.3743 852.306 56.11 851.779 57.5863 850.793C59.0625 849.806 60.2129 848.404 60.8919 846.763C61.5709 845.122 61.7479 843.317 61.4007 841.575C61.0534 839.834 60.1974 838.235 58.941 836.98C57.6846 835.725 56.0842 834.871 54.3424 834.526C52.6006 834.181 50.7956 834.361 49.1558 835.042C47.5159 835.723 46.115 836.875 45.1301 838.353C44.1453 839.83 43.6209 841.567 43.6232 843.342C43.6294 845.72 44.5774 847.998 46.2596 849.678C47.9418 851.358 50.2212 852.303 52.5986 852.306Z" fill="white"/>
<path d="M71.0006 861.037H-0.755859V932.793H71.0006V861.037Z" fill="#FF6600"/>
<path fill-rule="evenodd" clip-rule="evenodd" d="M71.0006 932.792C71.0006 923.277 67.2206 914.151 60.4921 907.423C53.7636 900.694 44.6379 896.914 35.1224 896.914C25.6069 896.914 16.4811 900.694 9.75263 907.423C3.02416 914.151 -0.755859 923.277 -0.755859 932.792H71.0006Z" fill="#080B4F"/>
<path fill-rule="evenodd" clip-rule="evenodd" d="M35.122 896.914C36.8976 896.914 38.6333 896.388 40.1096 895.401C41.5858 894.414 42.7362 893.012 43.4152 891.371C44.0942 889.73 44.2713 887.925 43.924 886.184C43.5768 884.442 42.7207 882.843 41.4643 881.588C40.2079 880.334 38.6076 879.48 36.8658 879.135C35.1239 878.79 33.3189 878.969 31.6791 879.65C30.0392 880.331 28.6383 881.484 27.6535 882.961C26.6687 884.439 26.1442 886.175 26.1465 887.951C26.1527 890.328 27.1007 892.606 28.7829 894.286C30.4651 895.966 32.7445 896.911 35.122 896.914Z" fill="white"/>
<path fill-rule="evenodd" clip-rule="evenodd" d="M-0.755859 968.671H35.1224V968.554C35.0915 959.059 31.2978 949.963 24.5727 943.26C17.8475 936.557 8.73943 932.793 -0.755859 932.793V968.671Z" fill="black"/>
<path fill-rule="evenodd" clip-rule="evenodd" d="M70.9994 932.793C61.5041 932.793 52.3961 936.557 45.6709 943.26C38.9458 949.963 35.1521 959.059 35.1212 968.554V968.671H70.9994V932.793Z" fill="#FF6600"/>
<path fill-rule="evenodd" clip-rule="evenodd" d="M70.9994 968.672H35.1212V968.788C35.152 978.254 38.9235 987.324 45.6137 994.021C52.3038 1000.72 61.37 1004.5 70.8358 1004.54H70.9994V968.672Z" fill="black"/>
<path fill-rule="evenodd" clip-rule="evenodd" d="M-0.592264 1004.54C8.8756 1004.5 17.9436 1000.72 24.634 994.016C31.3245 987.317 35.0947 978.244 35.1224 968.776V968.659H-0.755859V1004.54H-0.592264Z" fill="#FF6600"/>
</g>
</g>
<defs>
<clipPath id="clip0_997_27802">
<rect width="151" height="328" fill="white" transform="translate(-80 646)"/>
</clipPath>
</defs>
</svg>
