<svg width="22" height="22" viewBox="0 0 22 22" fill="none" xmlns="http://www.w3.org/2000/svg">
<path fill-rule="evenodd" clip-rule="evenodd" d="M9.98094 0.406521C7.40347 0.644876 5.04583 1.7011 3.21564 3.43738C1.50557 5.05972 0.462271 7.04783 0.079978 9.41263C-0.0266594 10.0722 -0.0266594 11.6189 0.079978 12.2785C0.462013 14.6417 1.49662 16.615 3.20992 18.2483C4.9159 19.8745 7.0065 20.8666 9.49321 21.2302C10.1868 21.3316 11.8132 21.3316 12.5068 21.2302C14.9919 20.8669 17.0669 19.883 18.7844 18.2537C20.4944 16.6314 21.5377 14.6433 21.92 12.2785C22.0267 11.6189 22.0267 10.0722 21.92 9.41263C21.538 7.04938 20.5034 5.07606 18.7901 3.44282C17.0957 1.8276 14.9803 0.819282 12.5498 0.468341C12.0119 0.390677 10.5364 0.355182 9.98094 0.406521ZM12.3992 2.10325C14.3865 2.39852 16.1385 3.24619 17.5648 4.60258C19.0023 5.96958 19.8829 7.62439 20.2008 9.55592C20.2531 9.87374 20.2749 10.2532 20.2749 10.8455C20.2749 11.4379 20.2531 11.8173 20.2008 12.1352C19.8829 14.0667 19.0023 15.7215 17.5648 17.0885C16.1273 18.4555 14.3872 19.293 12.3561 19.5952C11.7039 19.6923 10.2961 19.6923 9.64389 19.5952C7.61279 19.293 5.87267 18.4555 4.43519 17.0885C2.99772 15.7215 2.11707 14.0667 1.79922 12.1352C1.69715 11.515 1.69715 10.1761 1.79922 9.55592C2.11707 7.62439 2.99772 5.96958 4.43519 4.60258C6.02076 3.09471 7.90076 2.26169 10.2466 2.0276C10.5968 1.99263 11.9823 2.04135 12.3992 2.10325ZM14.9176 7.34849C14.8216 7.38771 13.811 8.31837 12.1308 9.9148L9.49459 12.4195L8.38534 11.3716C7.77526 10.7952 7.21728 10.2953 7.14543 10.2606C6.70291 10.047 6.20429 10.2005 5.98382 10.6182C5.85454 10.8631 5.84735 11.0891 5.9617 11.3137C6.01654 11.4214 6.57491 11.9805 7.54382 12.8978C8.72462 14.0156 9.07657 14.3261 9.20856 14.3664C9.42773 14.4332 9.76039 14.394 9.93599 14.2805C10.1433 14.1466 15.8064 8.76614 15.9646 8.55288C16.085 8.39059 16.1013 8.33618 16.1014 8.09582C16.1015 7.85861 16.0847 7.80023 15.9724 7.64863C15.7326 7.32487 15.2863 7.19787 14.9176 7.34849Z" fill="#FDF001"/>
</svg>
