<svg width="56" height="42" viewBox="0 0 56 42" fill="none" xmlns="http://www.w3.org/2000/svg">
<path d="M51.7811 41.0548C53.5961 40.5715 55.0137 39.1216 55.497 37.2852C55.7333 36.3723 55.7333 20.3058 55.497 19.3929C55.0137 17.535 53.5854 16.0959 51.7382 15.6126C51.2226 15.4837 50.3742 15.4515 47.3671 15.4515C44.4459 15.4515 43.6297 15.4193 43.6297 15.3226C43.6297 15.2474 44.2097 12.1544 44.9292 8.45998C45.8851 3.50901 46.218 1.61884 46.1643 1.33961C46.0676 0.824106 45.5306 0.233427 45.0474 0.0830717C44.7896 0.00789432 43.5116 -0.0135849 41.3744 0.00789432L38.0988 0.0401132L37.5081 0.319344C36.9389 0.587834 36.3483 1.0926 36.0475 1.54366C35.9724 1.6618 34.7051 4.62594 33.223 8.12705C30.377 14.8715 30.2481 15.2582 30.0011 17.5135C29.926 18.1686 29.883 21.9167 29.883 27.6195C29.883 35.395 29.9045 36.7589 30.0441 37.3066C30.5274 39.1538 31.9665 40.5822 33.8244 41.0655C34.7266 41.3018 50.9005 41.291 51.7811 41.0548Z" fill="#FDF001"/>
<path d="M22.5693 41.0548C24.3843 40.5715 25.8019 39.1216 26.2852 37.2852C26.5215 36.3723 26.5215 20.3058 26.2852 19.3929C25.8019 17.535 24.3736 16.0959 22.5264 15.6126C22.0109 15.4837 21.1624 15.4515 18.1553 15.4515C15.2341 15.4515 14.4179 15.4193 14.4179 15.3226C14.4179 15.2474 14.9979 12.1544 15.7174 8.45998C16.6733 3.50901 17.0062 1.61884 16.9525 1.33961C16.8558 0.824106 16.3189 0.233427 15.8356 0.0830717C15.5778 0.00789432 14.2998 -0.0135849 12.1626 0.00789432L8.88703 0.0401132L8.29635 0.319344C7.72715 0.587834 7.13647 1.0926 6.83576 1.54366C6.76058 1.6618 5.4933 4.62594 4.01123 8.12705C1.16523 14.8715 1.03636 15.2582 0.789345 17.5135C0.714167 18.1686 0.671209 21.9167 0.671209 27.6195C0.671209 35.395 0.692688 36.7589 0.832304 37.3066C1.31559 39.1538 2.7547 40.5822 4.61265 41.0655C5.51478 41.3018 21.6887 41.291 22.5693 41.0548Z" fill="#FDF001"/>
</svg>
