<svg width="22" height="22" viewBox="0 0 22 22" fill="none" xmlns="http://www.w3.org/2000/svg">
<g clip-path="url(#clip0_249_19818)">
<path d="M16.6585 0.94043H5.34153C2.9109 0.94043 0.940491 2.91084 0.940491 5.34147V7.64679H21.0595V5.34147C21.0595 2.91084 19.0891 0.94043 16.6585 0.94043Z" fill="#82AFFF"/>
<path d="M0.940491 16.6583C0.940491 19.089 2.9109 21.0594 5.34153 21.0594H16.6585C19.0891 21.0594 21.0595 19.089 21.0595 16.6583V14.353H0.940491V16.6583Z" fill="#73AF00"/>
<path d="M21.0595 7.64697H0.940491V14.3535H21.0595V7.64697Z" fill="#F5F5F5"/>
<path d="M21.0595 7.05127H0.940491V7.88751H21.0595V7.05127Z" fill="#FF4B55"/>
<path d="M21.0595 14.1128H0.940491V14.949H21.0595V14.1128Z" fill="#FF4B55"/>
<path d="M5.70216 5.96606C4.61824 5.96606 3.73968 5.08955 3.73968 4.00953C3.73968 2.92553 4.61824 2.04513 5.70216 2.04513C5.70628 2.04513 5.71041 2.04517 5.71453 2.04521C5.77831 2.04607 5.80071 1.96127 5.74448 1.93113C5.41071 1.75226 5.02978 1.651 4.6248 1.65387C3.32787 1.66314 2.27441 2.73786 2.28813 4.03475C2.30172 5.31832 3.35106 6.35728 4.6417 6.35728C5.04114 6.35728 5.41668 6.25626 5.74625 6.07982C5.80232 6.0498 5.77965 5.96496 5.71607 5.96594C5.71143 5.96602 5.70679 5.96606 5.70216 5.96606Z" fill="#F5F5F5"/>
<path d="M7.23887 5.42494L7.1512 5.68774L6.87418 5.6899C6.8383 5.69018 6.82344 5.73596 6.85229 5.75725L7.07517 5.92182L6.99159 6.18596C6.98078 6.22015 7.01972 6.24844 7.04888 6.22758L7.27428 6.06647L7.49967 6.22758C7.52887 6.24844 7.56781 6.22015 7.55696 6.18596L7.47338 5.92182L7.69623 5.75725C7.72507 5.73596 7.71022 5.69018 7.67434 5.6899L7.39731 5.68774L7.30964 5.42494C7.29836 5.39091 7.25023 5.39091 7.23887 5.42494Z" fill="#F5F5F5"/>
<path d="M8.76901 5.42494L8.68139 5.68774L8.40436 5.6899C8.36848 5.69018 8.35363 5.73596 8.38247 5.75725L8.60535 5.92182L8.52177 6.18596C8.51096 6.22015 8.54987 6.24844 8.57906 6.22758L8.80446 6.06647L9.02985 6.22758C9.05905 6.24844 9.09799 6.22015 9.08715 6.18596L9.00357 5.92182L9.22645 5.75725C9.25529 5.73596 9.24044 5.69018 9.20456 5.6899L8.92753 5.68774L8.83986 5.42494C8.82851 5.39091 8.78037 5.39091 8.76901 5.42494Z" fill="#F5F5F5"/>
<path d="M11.8733 5.42494L11.7857 5.68774L11.5087 5.6899C11.4728 5.69018 11.4579 5.73596 11.4868 5.75725L11.7097 5.92182L11.6261 6.18596C11.6153 6.22015 11.6542 6.24844 11.6834 6.22758L11.9088 6.06647L12.1342 6.22758C12.1634 6.24844 12.2023 6.22015 12.1915 6.18596L12.1079 5.92182L12.3308 5.75725C12.3596 5.73596 12.3447 5.69018 12.3089 5.6899L12.0318 5.68774L11.9442 5.42494C11.9328 5.39091 11.8847 5.39091 11.8733 5.42494Z" fill="#F5F5F5"/>
<path d="M13.3961 5.42494L13.3084 5.68774L13.0314 5.6899C12.9955 5.69018 12.9806 5.73596 13.0095 5.75725L13.2324 5.92182L13.1488 6.18596C13.138 6.22015 13.1769 6.24844 13.2061 6.22758L13.4315 6.06647L13.6569 6.22758C13.6861 6.24844 13.725 6.22015 13.7142 6.18596L13.6306 5.92182L13.8535 5.75725C13.8823 5.73596 13.8675 5.69018 13.8316 5.6899L13.5545 5.68774L13.4669 5.42494C13.4555 5.39091 13.4074 5.39091 13.3961 5.42494Z" fill="#F5F5F5"/>
<path d="M8.76901 3.60315L8.68139 3.86596L8.40436 3.86812C8.36848 3.8684 8.35363 3.91417 8.38247 3.93547L8.60535 4.10004L8.52177 4.36418C8.51096 4.39837 8.54987 4.42666 8.57906 4.40583L8.80446 4.24472L9.02985 4.40583C9.05905 4.4267 9.09799 4.39841 9.08715 4.36422L9.00357 4.10008L9.22645 3.93551C9.25529 3.91421 9.24044 3.86843 9.20456 3.86816L8.92753 3.866L8.83986 3.60319C8.82851 3.56912 8.78037 3.56912 8.76901 3.60315Z" fill="#F5F5F5"/>
<path d="M10.331 3.60315L10.2434 3.86596L9.96634 3.86812C9.93046 3.8684 9.91561 3.91417 9.94445 3.93547L10.1673 4.10004L10.0838 4.36418C10.0729 4.39837 10.1118 4.42666 10.141 4.40583L10.3664 4.24472L10.5918 4.40583C10.621 4.4267 10.66 4.39841 10.6491 4.36422L10.5655 4.10008L10.7884 3.93551C10.8173 3.91421 10.8024 3.86843 10.7665 3.86816L10.4895 3.866L10.4018 3.60319C10.3905 3.56912 10.3424 3.56912 10.331 3.60315Z" fill="#F5F5F5"/>
<path d="M11.8733 3.60315L11.7857 3.86596L11.5087 3.86812C11.4728 3.8684 11.4579 3.91417 11.4868 3.93547L11.7097 4.10004L11.6261 4.36418C11.6153 4.39837 11.6542 4.42666 11.6834 4.40583L11.9088 4.24472L12.1342 4.40583C12.1634 4.4267 12.2023 4.39841 12.1915 4.36422L12.1079 4.10008L12.3308 3.93551C12.3596 3.91421 12.3447 3.86843 12.3089 3.86816L12.0318 3.866L11.9442 3.60319C11.9328 3.56912 11.8847 3.56912 11.8733 3.60315Z" fill="#F5F5F5"/>
<path d="M13.3961 3.60315L13.3084 3.86596L13.0314 3.86812C12.9955 3.8684 12.9806 3.91417 13.0095 3.93547L13.2324 4.10004L13.1488 4.36418C13.138 4.39837 13.1769 4.42666 13.2061 4.40583L13.4315 4.24472L13.6569 4.40583C13.6861 4.4267 13.725 4.39841 13.7142 4.36422L13.6306 4.10008L13.8535 3.93551C13.8823 3.91421 13.8675 3.86843 13.8316 3.86816L13.5545 3.866L13.4669 3.60319C13.4555 3.56912 13.4074 3.56912 13.3961 3.60315Z" fill="#F5F5F5"/>
<path d="M10.331 5.42494L10.2434 5.68774L9.96634 5.6899C9.93046 5.69018 9.91561 5.73596 9.94445 5.75725L10.1673 5.92182L10.0838 6.18596C10.0729 6.22015 10.1118 6.24844 10.141 6.22758L10.3664 6.06647L10.5918 6.22758C10.621 6.24844 10.66 6.22015 10.6491 6.18596L10.5655 5.92182L10.7884 5.75725C10.8173 5.73596 10.8024 5.69018 10.7665 5.6899L10.4895 5.68774L10.4018 5.42494C10.3905 5.39091 10.3424 5.39091 10.331 5.42494Z" fill="#F5F5F5"/>
<path d="M10.331 1.78187L10.2434 2.04467L9.96634 2.04684C9.93046 2.04711 9.91561 2.09289 9.94445 2.11419L10.1673 2.27876L10.0838 2.5429C10.0729 2.57708 10.1118 2.60538 10.141 2.58451L10.3664 2.4234L10.5918 2.58451C10.621 2.60538 10.66 2.57708 10.6491 2.5429L10.5655 2.27876L10.7884 2.11419C10.8173 2.09289 10.8024 2.04711 10.7665 2.04684L10.4895 2.04467L10.4018 1.78187C10.3905 1.74784 10.3424 1.74784 10.331 1.78187Z" fill="#F5F5F5"/>
<path d="M11.8733 5.42494L11.7857 5.68774L11.5087 5.6899C11.4728 5.69018 11.4579 5.73596 11.4868 5.75725L11.7097 5.92182L11.6261 6.18596C11.6153 6.22015 11.6542 6.24844 11.6834 6.22758L11.9088 6.06647L12.1342 6.22758C12.1634 6.24844 12.2023 6.22015 12.1915 6.18596L12.1079 5.92182L12.3308 5.75725C12.3596 5.73596 12.3447 5.69018 12.3089 5.6899L12.0318 5.68774L11.9442 5.42494C11.9328 5.39091 11.8847 5.39091 11.8733 5.42494Z" fill="#F5F5F5"/>
<path d="M13.3961 5.42494L13.3084 5.68774L13.0314 5.6899C12.9955 5.69018 12.9806 5.73596 13.0095 5.75725L13.2324 5.92182L13.1488 6.18596C13.138 6.22015 13.1769 6.24844 13.2061 6.22758L13.4315 6.06647L13.6569 6.22758C13.6861 6.24844 13.725 6.22015 13.7142 6.18596L13.6306 5.92182L13.8535 5.75725C13.8823 5.73596 13.8675 5.69018 13.8316 5.6899L13.5545 5.68774L13.4669 5.42494C13.4555 5.39091 13.4074 5.39091 13.3961 5.42494Z" fill="#F5F5F5"/>
<path d="M11.8733 1.78187L11.7857 2.04467L11.5087 2.04684C11.4728 2.04711 11.4579 2.09289 11.4868 2.11419L11.7097 2.27876L11.6261 2.5429C11.6153 2.57708 11.6542 2.60538 11.6834 2.58451L11.9088 2.4234L12.1342 2.58451C12.1634 2.60538 12.2023 2.57708 12.1915 2.5429L12.1079 2.27876L12.3308 2.11419C12.3596 2.09289 12.3447 2.04711 12.3089 2.04684L12.0318 2.04467L11.9442 1.78187C11.9328 1.74784 11.8847 1.74784 11.8733 1.78187Z" fill="#F5F5F5"/>
<path d="M13.3961 1.78187L13.3084 2.04467L13.0314 2.04684C12.9955 2.04711 12.9806 2.09289 13.0095 2.11419L13.2324 2.27876L13.1488 2.5429C13.138 2.57708 13.1769 2.60538 13.2061 2.58451L13.4315 2.4234L13.6569 2.58451C13.6861 2.60538 13.725 2.57708 13.7142 2.5429L13.6306 2.27876L13.8535 2.11419C13.8823 2.09289 13.8675 2.04711 13.8316 2.04684L13.5545 2.04467L13.4669 1.78187C13.4555 1.74784 13.4074 1.74784 13.3961 1.78187Z" fill="#F5F5F5"/>
</g>
<defs>
<clipPath id="clip0_249_19818">
<rect width="20.119" height="20.119" fill="white" transform="translate(0.940491 0.94043)"/>
</clipPath>
</defs>
</svg>
