<svg width="20" height="20" viewBox="0 0 20 20" fill="none" xmlns="http://www.w3.org/2000/svg">
<path d="M9.99999 1.66675C5.40499 1.66675 1.66666 5.40508 1.66666 10.0001V13.4526C1.66666 14.3059 2.41416 15.0001 3.33332 15.0001H4.16666C4.38767 15.0001 4.59963 14.9123 4.75591 14.756C4.91219 14.5997 4.99999 14.3878 4.99999 14.1667V9.88091C4.99999 9.6599 4.91219 9.44794 4.75591 9.29166C4.59963 9.13538 4.38767 9.04758 4.16666 9.04758H3.40999C3.87332 5.82258 6.64832 3.33341 9.99999 3.33341C13.3517 3.33341 16.1267 5.82258 16.59 9.04758H15.8333C15.6123 9.04758 15.4003 9.13538 15.2441 9.29166C15.0878 9.44794 15 9.6599 15 9.88091V15.0001C15 15.9192 14.2525 16.6667 13.3333 16.6667H11.6667V15.8334H8.33332V18.3334H13.3333C15.1717 18.3334 16.6667 16.8384 16.6667 15.0001C17.5858 15.0001 18.3333 14.3059 18.3333 13.4526V10.0001C18.3333 5.40508 14.595 1.66675 9.99999 1.66675Z" fill="#7E5CC5"/>
</svg>
