<svg xmlns="http://www.w3.org/2000/svg" xmlns:xlink="http://www.w3.org/1999/xlink" version="1.1"
    id="Layer_1" x="0px" y="0px" width="100%" viewBox="0 0 940 788"
    enable-background="new 0 0 940 788" xml:space="preserve">
    <path fill="transparent" opacity="1.000000" stroke="none" d=" M632.000000,789.000000   C421.333405,789.000000 211.166794,789.000000 1.000141,789.000000   C1.000094,526.333496 1.000094,263.666962 1.000047,1.000317   C314.333099,1.000211 627.666199,1.000211 940.999451,1.000106   C940.999634,263.666351 940.999634,526.332703 940.999817,788.999512   C838.166687,789.000000 735.333313,789.000000 632.000000,789.000000  M339.019501,676.412781   C351.522003,693.836731 368.206940,702.752075 389.830322,699.939331   C414.442017,696.737915 429.628693,682.289307 436.076355,658.555847   C468.977600,537.448669 501.829224,416.328003 534.691040,295.210114   C546.357849,252.209915 557.831360,209.156052 569.775757,166.233170   C572.965393,154.771027 574.910889,143.024078 572.439392,131.733597   C565.887573,101.803490 539.936951,84.931488 509.291534,90.651176   C488.557251,94.521027 474.750336,107.937981 468.961884,128.554718   C461.912964,153.660828 455.232422,178.870468 448.406921,204.039200   C424.654419,291.625275 400.909546,379.213440 377.158875,466.799988   C362.843597,519.591248 348.494843,572.373352 334.242615,625.181580   C332.563477,631.403198 330.715424,637.703552 330.149689,644.074280   C329.133179,655.521423 332.863434,666.008667 339.019501,676.412781  M759.155457,553.644836   C763.787109,550.106018 768.423950,546.573975 773.049683,543.027344   C818.251770,508.369751 863.354492,473.581573 908.689697,439.099060   C935.294678,418.862976 936.289307,376.508820 908.877136,354.618195   C847.841125,305.876556 786.985046,256.908508 726.235474,207.810181   C715.453369,199.095978 703.985718,192.830490 689.967834,191.962311   C661.483948,190.198151 634.735107,211.200607 633.299683,244.615738   C632.551086,262.043030 640.667725,276.713684 654.523499,287.805206   C690.408325,316.531067 726.272644,345.282745 762.138611,374.032257   C771.031189,381.160400 779.899170,388.319305 789.023499,395.661255   C787.447815,396.974731 786.341309,397.966034 785.165771,398.867065   C740.619629,433.010712 696.155884,467.262817 651.467468,501.219360   C635.746521,513.164917 624.596924,537.170593 631.659180,559.662292   C642.066040,592.805847 682.680969,611.112244 715.315308,587.137817   C729.941956,576.392517 744.173462,565.109253 759.155457,553.644836  M256.841003,475.661804   C222.230759,449.143188 187.620514,422.624573 152.307571,395.567566   C153.641373,394.638031 154.477463,394.124664 155.237198,393.515991   C199.171463,358.318970 243.117828,323.136993 287.020233,287.900269   C309.318176,270.003601 313.663147,242.797806 301.798431,220.288544   C285.527649,189.420273 246.442245,183.098969 220.626099,203.874313   C158.474640,253.890213 96.278458,303.850769 34.017956,353.730804   C21.553015,363.717102 13.562539,376.486938 12.252984,392.165466   C10.692887,410.843628 17.529480,427.035919 32.577576,438.630646   C96.431892,487.831085 160.494446,536.761108 224.449768,585.830566   C236.614594,595.163940 250.369888,600.140381 265.473267,597.736206   C293.314484,593.304260 311.613159,571.986023 311.906860,544.346680   C312.096313,526.520264 304.289581,512.233398 290.309021,501.337341   C279.406433,492.840118 268.382080,484.499146 256.841003,475.661804  z"/>
    <path fill="#333" opacity="1.000000" stroke="none" d=" M338.820374,676.110229   C332.863434,666.008667 329.133179,655.521423 330.149689,644.074280   C330.715424,637.703552 332.563477,631.403198 334.242615,625.181580   C348.494843,572.373352 362.843597,519.591248 377.158875,466.799988   C400.909546,379.213440 424.654419,291.625275 448.406921,204.039200   C455.232422,178.870468 461.912964,153.660828 468.961884,128.554718   C474.750336,107.937981 488.557251,94.521027 509.291534,90.651176   C539.936951,84.931488 565.887573,101.803490 572.439392,131.733597   C574.910889,143.024078 572.965393,154.771027 569.775757,166.233170   C557.831360,209.156052 546.357849,252.209915 534.691040,295.210114   C501.829224,416.328003 468.977600,537.448669 436.076355,658.555847   C429.628693,682.289307 414.442017,696.737915 389.830322,699.939331   C368.206940,702.752075 351.522003,693.836731 338.820374,676.110229  z"/>
    <path fill="#333" opacity="1.000000" stroke="none" d=" M758.869873,553.857483   C744.173462,565.109253 729.941956,576.392517 715.315308,587.137817   C682.680969,611.112244 642.066040,592.805847 631.659180,559.662292   C624.596924,537.170593 635.746521,513.164917 651.467468,501.219360   C696.155884,467.262817 740.619629,433.010712 785.165771,398.867065   C786.341309,397.966034 787.447815,396.974731 789.023499,395.661255   C779.899170,388.319305 771.031189,381.160400 762.138611,374.032257   C726.272644,345.282745 690.408325,316.531067 654.523499,287.805206   C640.667725,276.713684 632.551086,262.043030 633.299683,244.615738   C634.735107,211.200607 661.483948,190.198151 689.967834,191.962311   C703.985718,192.830490 715.453369,199.095978 726.235474,207.810181   C786.985046,256.908508 847.841125,305.876556 908.877136,354.618195   C936.289307,376.508820 935.294678,418.862976 908.689697,439.099060   C863.354492,473.581573 818.251770,508.369751 773.049683,543.027344   C768.423950,546.573975 763.787109,550.106018 758.869873,553.857483  z"/>
    <path fill="#333" opacity="1.000000" stroke="none" d=" M257.126404,475.875305   C268.382080,484.499146 279.406433,492.840118 290.309021,501.337341   C304.289581,512.233398 312.096313,526.520264 311.906860,544.346680   C311.613159,571.986023 293.314484,593.304260 265.473267,597.736206   C250.369888,600.140381 236.614594,595.163940 224.449768,585.830566   C160.494446,536.761108 96.431892,487.831085 32.577576,438.630646   C17.529480,427.035919 10.692887,410.843628 12.252984,392.165466   C13.562539,376.486938 21.553015,363.717102 34.017956,353.730804   C96.278458,303.850769 158.474640,253.890213 220.626099,203.874313   C246.442245,183.098969 285.527649,189.420273 301.798431,220.288544   C313.663147,242.797806 309.318176,270.003601 287.020233,287.900269   C243.117828,323.136993 199.171463,358.318970 155.237198,393.515991   C154.477463,394.124664 153.641373,394.638031 152.307571,395.567566   C187.620514,422.624573 222.230759,449.143188 257.126404,475.875305  z"/>
    </svg>